<svg width="360" height="319" viewBox="0 0 360 319" fill="none" xmlns="http://www.w3.org/2000/svg">
<g clip-path="url(#clip0_28_539)">
<path d="M324.59 166.012C324.637 205.485 309.64 243.439 282.751 271.897C281.129 273.623 279.465 275.308 277.756 276.952C275.153 279.471 272.462 281.892 269.684 284.216C243.697 305.998 211.255 318.237 177.591 318.961C176.47 318.987 175.344 319 174.214 319C147.366 319 113.598 304.411 82.9542 284.216C80.4188 282.545 77.9061 280.836 75.4159 279.088C74.2519 278.278 73.0936 277.457 71.9409 276.625C60.1219 268.134 48.9033 258.81 38.3678 248.722C31.4699 242.136 25.0014 235.099 19.0036 227.657C-4.54244 198.109 -9.73585 171.485 23.833 166.012C27.8074 165.367 31.6648 164.676 35.405 163.941C40.8227 162.882 46.0077 161.738 50.9598 160.509C57.6304 158.86 63.8975 157.072 69.7611 155.144C71.7335 154.498 73.6608 153.839 75.5429 153.168C103.368 143.225 121.992 130.26 134.668 116.192C136.818 113.811 138.801 111.401 140.615 108.962C143.391 105.251 145.913 101.349 148.162 97.2846C151.266 91.6377 153.874 85.7227 155.954 79.6085L156.068 79.2727C166.155 49.6733 163.086 22.2184 174.214 13.0294C221.78 -26.2541 280.998 29.6893 308.794 95.6612C310.195 98.9855 311.513 102.33 312.747 105.694C313.302 107.197 313.836 108.703 314.351 110.211C315.706 114.143 316.935 118.084 318.038 122.035C318.461 123.542 318.865 125.048 319.248 126.552C319.659 128.176 320.053 129.795 320.417 131.414C323.121 143.268 324.59 154.959 324.59 166.012Z" fill="#F2F2F2"/>
<path d="M177.591 318.961C176.47 318.987 175.344 319 174.214 319C147.366 319 113.598 304.411 82.9543 284.216C80.419 282.546 77.9062 280.836 75.416 279.088L77.6 265.567L143.718 256.636L176.901 282.451L177.591 318.961Z" fill="#2F2E41"/>
<path d="M180.774 77.5291H171.352C171.061 77.5292 170.781 77.6472 170.574 77.8571C170.368 78.067 170.252 78.3517 170.252 78.6485V88.238C170.252 88.3847 170.281 88.53 170.336 88.6656C170.391 88.8011 170.473 88.9242 170.575 89.0278C170.677 89.1314 170.798 89.2134 170.932 89.2693C171.065 89.3251 171.208 89.3537 171.352 89.3533H180.774C181.065 89.3534 181.345 89.236 181.551 89.027C181.757 88.8179 181.874 88.5342 181.875 88.238V78.6485C181.874 78.3519 181.758 78.0676 181.551 77.8579C181.345 77.6481 181.066 77.5299 180.774 77.5291V77.5291Z" fill="white"/>
<path d="M180.774 93.8704H171.352C171.061 93.8705 170.781 93.9885 170.574 94.1984C170.368 94.4084 170.252 94.693 170.252 94.9899V104.579C170.252 104.726 170.281 104.871 170.336 105.007C170.391 105.142 170.473 105.266 170.575 105.369C170.677 105.473 170.798 105.555 170.932 105.611C171.065 105.666 171.208 105.695 171.352 105.695H180.774C181.065 105.695 181.345 105.577 181.551 105.368C181.757 105.159 181.874 104.876 181.875 104.579V94.9899C181.874 94.6933 181.758 94.409 181.551 94.1992C181.345 93.9894 181.066 93.8712 180.774 93.8704Z" fill="#E6E6E6"/>
<path d="M180.774 110.212H171.352C171.061 110.212 170.781 110.33 170.574 110.54C170.368 110.75 170.252 111.034 170.252 111.331V120.916C170.252 121.063 170.28 121.209 170.335 121.345C170.39 121.481 170.471 121.605 170.574 121.709C170.676 121.813 170.797 121.895 170.931 121.951C171.065 122.007 171.208 122.036 171.352 122.036H180.774C181.066 122.036 181.346 121.918 181.552 121.708C181.759 121.498 181.875 121.213 181.875 120.916V111.331C181.874 111.034 181.758 110.75 181.551 110.54C181.345 110.331 181.066 110.212 180.774 110.212V110.212Z" fill="#E6E6E6"/>
<path d="M181.858 127.474C181.811 127.216 181.677 126.983 181.479 126.815C181.281 126.647 181.032 126.554 180.774 126.553H171.352C171.061 126.553 170.781 126.671 170.574 126.881C170.368 127.091 170.252 127.375 170.252 127.672V137.257C170.252 137.404 170.28 137.55 170.335 137.686C170.39 137.822 170.471 137.946 170.574 138.05C170.676 138.154 170.797 138.236 170.931 138.292C171.065 138.348 171.208 138.377 171.352 138.377H180.774C181.066 138.377 181.346 138.259 181.552 138.049C181.759 137.839 181.875 137.554 181.875 137.257V127.672C181.876 127.606 181.87 127.539 181.858 127.474V127.474Z" fill="#E6E6E6"/>
<path d="M181.202 142.98C181.066 142.923 180.921 142.894 180.774 142.894H171.352C171.208 142.894 171.065 142.922 170.931 142.979C170.797 143.035 170.676 143.117 170.574 143.221C170.471 143.325 170.39 143.449 170.335 143.585C170.28 143.721 170.252 143.866 170.252 144.013V153.599C170.251 153.746 170.279 153.892 170.334 154.028C170.389 154.164 170.47 154.288 170.573 154.392C170.675 154.496 170.797 154.578 170.93 154.634C171.064 154.69 171.208 154.719 171.352 154.718H180.774C181.066 154.718 181.346 154.6 181.552 154.39C181.759 154.18 181.875 153.895 181.875 153.599V144.013C181.874 143.793 181.81 143.578 181.69 143.394C181.571 143.21 181.401 143.066 181.202 142.98Z" fill="#E6E6E6"/>
<path d="M200.566 77.5291H191.144C190.852 77.5292 190.572 77.6472 190.366 77.8571C190.16 78.067 190.044 78.3517 190.043 78.6485V88.238C190.044 88.3847 190.072 88.53 190.128 88.6656C190.183 88.8011 190.264 88.9242 190.366 89.0278C190.469 89.1314 190.59 89.2134 190.723 89.2693C190.857 89.3251 191 89.3537 191.144 89.3533H200.566C200.857 89.3534 201.136 89.236 201.342 89.027C201.549 88.8179 201.665 88.5342 201.666 88.238V78.6485C201.665 78.3519 201.549 78.0676 201.343 77.8579C201.137 77.6481 200.857 77.5299 200.566 77.5291V77.5291Z" fill="#E6E6E6"/>
<path d="M200.566 93.8704H191.144C190.852 93.8705 190.572 93.9885 190.366 94.1984C190.16 94.4084 190.044 94.693 190.043 94.9899V104.579C190.044 104.726 190.072 104.871 190.128 105.007C190.183 105.142 190.264 105.266 190.366 105.369C190.469 105.473 190.59 105.555 190.723 105.611C190.857 105.666 191 105.695 191.144 105.695H200.566C200.857 105.695 201.136 105.577 201.343 105.368C201.549 105.159 201.665 104.876 201.666 104.579V94.9899C201.665 94.6933 201.549 94.409 201.343 94.1992C201.137 93.9894 200.857 93.8712 200.566 93.8704Z" fill="#FF8A00"/>
<path d="M200.566 110.212H191.144C190.852 110.212 190.572 110.33 190.366 110.54C190.16 110.75 190.044 111.034 190.043 111.331V120.916C190.043 121.063 190.071 121.209 190.127 121.345C190.182 121.481 190.263 121.605 190.365 121.709C190.467 121.813 190.589 121.895 190.722 121.951C190.856 122.007 190.999 122.036 191.144 122.036H200.566C200.858 122.036 201.137 121.918 201.344 121.708C201.55 121.498 201.666 121.213 201.666 120.916V111.331C201.665 111.034 201.549 110.75 201.343 110.54C201.137 110.331 200.857 110.212 200.566 110.212V110.212Z" fill="#FF8A00"/>
<path d="M200.566 126.553H191.144C190.913 126.553 190.688 126.627 190.501 126.765C190.315 126.902 190.175 127.096 190.103 127.319C190.064 127.433 190.043 127.552 190.043 127.672V137.257C190.043 137.404 190.071 137.55 190.127 137.686C190.182 137.822 190.263 137.946 190.365 138.05C190.467 138.154 190.589 138.236 190.722 138.292C190.856 138.348 190.999 138.377 191.144 138.377H200.566C200.858 138.377 201.137 138.259 201.344 138.049C201.55 137.839 201.666 137.554 201.666 137.257V127.672C201.665 127.376 201.549 127.091 201.343 126.882C201.137 126.672 200.857 126.553 200.566 126.553V126.553Z" fill="#FF8A00"/>
<path d="M200.566 142.894H191.144C190.999 142.894 190.856 142.922 190.722 142.979C190.589 143.035 190.467 143.117 190.365 143.221C190.263 143.325 190.182 143.449 190.127 143.585C190.071 143.721 190.043 143.866 190.043 144.013V153.599C190.043 153.746 190.071 153.891 190.127 154.027C190.182 154.163 190.263 154.287 190.365 154.391C190.467 154.495 190.589 154.577 190.722 154.634C190.856 154.69 190.999 154.718 191.144 154.718H200.566C200.858 154.718 201.137 154.6 201.344 154.39C201.55 154.18 201.666 153.895 201.666 153.599V144.013C201.666 143.717 201.55 143.432 201.344 143.222C201.137 143.012 200.858 142.894 200.566 142.894V142.894Z" fill="#E6E6E6"/>
<path d="M220.357 77.5291H210.936C210.644 77.5292 210.364 77.6472 210.158 77.8571C209.951 78.067 209.835 78.3517 209.835 78.6485V88.238C209.835 88.3847 209.864 88.53 209.919 88.6656C209.975 88.8011 210.056 88.9242 210.158 89.0278C210.26 89.1314 210.382 89.2134 210.515 89.2693C210.648 89.3251 210.791 89.3537 210.936 89.3533H220.357C220.649 89.3534 220.928 89.236 221.134 89.027C221.341 88.8179 221.457 88.5342 221.458 88.238V78.6485C221.457 78.3519 221.341 78.0676 221.135 77.8579C220.928 77.6481 220.649 77.5299 220.357 77.5291V77.5291Z" fill="#FF8A00"/>
<path d="M220.357 93.8704H210.936C210.644 93.8705 210.364 93.9885 210.158 94.1984C209.951 94.4084 209.835 94.693 209.835 94.9899V104.579C209.835 104.726 209.864 104.871 209.919 105.007C209.975 105.142 210.056 105.266 210.158 105.369C210.26 105.473 210.382 105.555 210.515 105.611C210.648 105.666 210.791 105.695 210.936 105.695H220.357C220.649 105.695 220.928 105.577 221.134 105.368C221.341 105.159 221.457 104.876 221.458 104.579V94.9899C221.457 94.6933 221.341 94.409 221.135 94.1992C220.928 93.9894 220.649 93.8712 220.357 93.8704Z" fill="#FF8A00"/>
<path d="M220.357 110.212H210.936C210.644 110.212 210.364 110.33 210.158 110.54C209.951 110.75 209.835 111.034 209.835 111.331V120.916C209.835 121.063 209.863 121.209 209.918 121.345C209.974 121.481 210.055 121.605 210.157 121.709C210.259 121.813 210.381 121.895 210.514 121.951C210.648 122.007 210.791 122.036 210.936 122.036H220.357C220.649 122.036 220.929 121.918 221.135 121.708C221.342 121.498 221.458 121.213 221.458 120.916V111.331C221.457 111.034 221.341 110.75 221.135 110.54C220.928 110.331 220.649 110.212 220.357 110.212V110.212Z" fill="#E6E6E6"/>
<path d="M220.357 126.553H210.936C210.644 126.553 210.364 126.671 210.158 126.881C209.951 127.091 209.835 127.375 209.835 127.672V137.257C209.835 137.404 209.863 137.55 209.918 137.686C209.974 137.822 210.055 137.946 210.157 138.05C210.259 138.154 210.381 138.236 210.514 138.292C210.648 138.348 210.791 138.377 210.936 138.377H220.357C220.649 138.377 220.929 138.259 221.135 138.049C221.342 137.839 221.458 137.554 221.458 137.257V127.672C221.457 127.376 221.341 127.091 221.135 126.882C220.928 126.672 220.649 126.553 220.357 126.553V126.553Z" fill="#FF8A00"/>
<path d="M220.357 142.894H210.936C210.791 142.894 210.648 142.922 210.514 142.979C210.381 143.035 210.259 143.117 210.157 143.221C210.055 143.325 209.974 143.449 209.918 143.585C209.863 143.721 209.835 143.866 209.835 144.013V153.599C209.835 153.746 209.863 153.891 209.918 154.027C209.974 154.163 210.055 154.287 210.157 154.391C210.259 154.495 210.381 154.577 210.514 154.634C210.648 154.69 210.791 154.718 210.936 154.718H220.357C220.649 154.718 220.929 154.6 221.135 154.39C221.342 154.18 221.458 153.895 221.458 153.599V144.013C221.458 143.717 221.342 143.432 221.135 143.222C220.929 143.012 220.649 142.894 220.357 142.894V142.894Z" fill="#FF8A00"/>
<path d="M240.149 77.5291H230.727C230.436 77.5292 230.156 77.6472 229.949 77.8571C229.743 78.067 229.627 78.3517 229.627 78.6485V88.238C229.627 88.3847 229.656 88.5301 229.711 88.6656C229.767 88.8011 229.848 88.9242 229.95 89.0278C230.052 89.1314 230.173 89.2134 230.307 89.2693C230.44 89.3251 230.583 89.3537 230.727 89.3533H240.149C240.44 89.3534 240.72 89.236 240.926 89.027C241.132 88.8179 241.249 88.5342 241.25 88.238V78.6485C241.249 78.3519 241.133 78.0676 240.926 77.8579C240.72 77.6481 240.441 77.5299 240.149 77.5291V77.5291Z" fill="#FF8A00"/>
<path d="M240.149 93.8704H230.727C230.436 93.8705 230.156 93.9885 229.949 94.1984C229.743 94.4084 229.627 94.693 229.627 94.9899V104.579C229.627 104.726 229.656 104.871 229.711 105.007C229.767 105.142 229.848 105.266 229.95 105.369C230.052 105.473 230.173 105.555 230.307 105.611C230.44 105.666 230.583 105.695 230.727 105.695H240.149C240.44 105.695 240.72 105.577 240.926 105.368C241.132 105.159 241.249 104.876 241.25 104.579V94.9899C241.249 94.6933 241.133 94.409 240.926 94.1992C240.72 93.9894 240.441 93.8712 240.149 93.8704V93.8704Z" fill="white"/>
<path d="M240.149 110.212H230.727C230.436 110.212 230.156 110.33 229.949 110.54C229.743 110.75 229.627 111.034 229.627 111.331V120.916C229.627 121.063 229.655 121.209 229.71 121.345C229.765 121.481 229.846 121.605 229.949 121.709C230.051 121.813 230.172 121.895 230.306 121.951C230.44 122.007 230.583 122.036 230.727 122.036H240.149C240.441 122.036 240.721 121.918 240.927 121.708C241.134 121.498 241.25 121.213 241.25 120.916V111.331C241.249 111.034 241.133 110.75 240.926 110.54C240.72 110.331 240.441 110.212 240.149 110.212V110.212Z" fill="white"/>
<path d="M240.149 126.553H230.727C230.436 126.553 230.156 126.671 229.949 126.881C229.743 127.091 229.627 127.375 229.627 127.672V137.257C229.627 137.404 229.655 137.55 229.71 137.686C229.765 137.822 229.846 137.946 229.949 138.05C230.051 138.154 230.172 138.236 230.306 138.292C230.44 138.348 230.583 138.377 230.727 138.377H240.149C240.441 138.377 240.721 138.259 240.927 138.049C241.134 137.839 241.25 137.554 241.25 137.257V127.672C241.249 127.376 241.133 127.091 240.926 126.882C240.72 126.672 240.441 126.553 240.149 126.553V126.553Z" fill="#E6E6E6"/>
<path d="M240.149 142.894H230.727C230.583 142.894 230.44 142.922 230.306 142.979C230.172 143.035 230.051 143.117 229.949 143.221C229.846 143.325 229.765 143.449 229.71 143.585C229.655 143.721 229.627 143.866 229.627 144.013V153.599C229.627 153.746 229.655 153.891 229.71 154.027C229.765 154.163 229.846 154.287 229.949 154.391C230.051 154.495 230.172 154.577 230.306 154.634C230.44 154.69 230.583 154.718 230.727 154.718H240.149C240.441 154.718 240.721 154.6 240.927 154.39C241.134 154.18 241.25 153.895 241.25 153.599V144.013C241.25 143.717 241.134 143.432 240.927 143.222C240.721 143.012 240.441 142.894 240.149 142.894V142.894Z" fill="#FF8A00"/>
<path d="M259.941 77.5291H250.515C250.224 77.5301 249.945 77.6485 249.739 77.8583C249.534 78.0682 249.419 78.3523 249.419 78.6485V88.238C249.419 88.5337 249.534 88.8174 249.74 89.0265C249.945 89.2357 250.224 89.3532 250.515 89.3533H259.941C260.232 89.3534 260.512 89.236 260.718 89.027C260.924 88.8179 261.041 88.5342 261.042 88.238V78.6485C261.041 78.3519 260.924 78.0676 260.718 77.8579C260.512 77.6481 260.233 77.5299 259.941 77.5291Z" fill="white"/>
<path d="M259.941 93.8704H250.515C250.224 93.8714 249.945 93.9898 249.739 94.1997C249.534 94.4095 249.419 94.6937 249.419 94.9899V104.579C249.419 104.875 249.534 105.159 249.74 105.368C249.945 105.577 250.224 105.695 250.515 105.695H259.941C260.232 105.695 260.512 105.577 260.718 105.368C260.924 105.159 261.041 104.876 261.042 104.579V94.9899C261.041 94.6933 260.924 94.409 260.718 94.1992C260.512 93.9894 260.233 93.8712 259.941 93.8704V93.8704Z" fill="white"/>
<path d="M259.941 110.212H250.515C250.224 110.213 249.945 110.331 249.739 110.541C249.534 110.751 249.419 111.035 249.419 111.331V120.916C249.418 121.063 249.446 121.208 249.501 121.344C249.556 121.48 249.637 121.603 249.739 121.707C249.84 121.811 249.961 121.894 250.095 121.95C250.228 122.007 250.371 122.036 250.515 122.036H259.941C260.233 122.036 260.513 121.918 260.719 121.708C260.925 121.498 261.041 121.213 261.042 120.916V111.331C261.041 111.034 260.924 110.75 260.718 110.54C260.512 110.331 260.233 110.212 259.941 110.212V110.212Z" fill="white"/>
<path d="M259.941 126.553H250.515C250.224 126.554 249.945 126.672 249.739 126.882C249.534 127.092 249.419 127.376 249.419 127.672V137.257C249.418 137.404 249.446 137.55 249.501 137.685C249.556 137.821 249.637 137.944 249.739 138.048C249.84 138.152 249.961 138.235 250.095 138.291C250.228 138.348 250.371 138.377 250.515 138.377H259.941C260.233 138.377 260.513 138.259 260.719 138.049C260.925 137.839 261.041 137.554 261.042 137.257V127.672C261.041 127.376 260.924 127.091 260.718 126.882C260.512 126.672 260.233 126.553 259.941 126.553V126.553Z" fill="#FF8A00"/>
<path d="M259.941 142.894H250.515C250.371 142.894 250.228 142.923 250.095 142.98C249.961 143.036 249.84 143.118 249.739 143.222C249.637 143.326 249.556 143.45 249.501 143.586C249.446 143.721 249.418 143.867 249.419 144.013V153.599C249.418 153.745 249.446 153.891 249.501 154.027C249.556 154.162 249.637 154.286 249.739 154.39C249.84 154.494 249.961 154.576 250.095 154.633C250.228 154.689 250.371 154.718 250.515 154.718H259.941C260.233 154.718 260.513 154.6 260.719 154.39C260.925 154.18 261.041 153.895 261.042 153.599V144.013C261.041 143.717 260.925 143.432 260.719 143.222C260.513 143.012 260.233 142.894 259.941 142.894V142.894Z" fill="#E6E6E6"/>
<path d="M279.733 77.5291H270.307C270.016 77.5301 269.737 77.6485 269.531 77.8583C269.326 78.0682 269.21 78.3523 269.21 78.6485V88.238C269.211 88.5337 269.326 88.8174 269.532 89.0265C269.737 89.2357 270.016 89.3532 270.307 89.3533H279.733C280.024 89.3534 280.303 89.236 280.51 89.027C280.716 88.8179 280.832 88.5342 280.833 88.238V78.6485C280.832 78.3519 280.716 78.0676 280.51 77.8579C280.304 77.6481 280.024 77.5299 279.733 77.5291V77.5291Z" fill="white"/>
<path d="M279.733 93.8704H270.307C270.016 93.8714 269.737 93.9898 269.531 94.1997C269.326 94.4095 269.21 94.6937 269.21 94.9899V104.579C269.211 104.875 269.326 105.159 269.532 105.368C269.737 105.577 270.016 105.695 270.307 105.695H279.733C280.024 105.695 280.303 105.577 280.51 105.368C280.716 105.159 280.832 104.876 280.833 104.579V94.9899C280.832 94.6933 280.716 94.409 280.51 94.1992C280.304 93.9895 280.024 93.8712 279.733 93.8704V93.8704Z" fill="white"/>
<path d="M279.733 110.212H270.307C270.016 110.213 269.737 110.331 269.531 110.541C269.326 110.751 269.21 111.035 269.21 111.331V120.916C269.21 121.063 269.238 121.208 269.293 121.344C269.348 121.48 269.429 121.603 269.53 121.707C269.632 121.811 269.753 121.894 269.886 121.95C270.02 122.007 270.162 122.036 270.307 122.036H279.733C280.025 122.036 280.304 121.918 280.511 121.708C280.717 121.498 280.833 121.213 280.833 120.916V111.331C280.832 111.034 280.716 110.75 280.51 110.54C280.304 110.331 280.024 110.212 279.733 110.212V110.212Z" fill="#FF8A00"/>
<path d="M279.733 126.553H270.307C270.016 126.554 269.737 126.672 269.531 126.882C269.326 127.092 269.21 127.376 269.21 127.672V137.257C269.21 137.404 269.238 137.55 269.293 137.685C269.348 137.821 269.429 137.944 269.53 138.048C269.632 138.152 269.753 138.235 269.886 138.291C270.02 138.348 270.162 138.377 270.307 138.377H279.733C280.025 138.377 280.304 138.259 280.511 138.049C280.717 137.839 280.833 137.554 280.833 137.257V127.672C280.832 127.376 280.716 127.091 280.51 126.882C280.304 126.672 280.024 126.553 279.733 126.553V126.553Z" fill="#E6E6E6"/>
<path d="M279.733 142.894H270.307C270.162 142.894 270.02 142.923 269.886 142.98C269.753 143.036 269.632 143.118 269.53 143.222C269.429 143.326 269.348 143.45 269.293 143.586C269.238 143.721 269.21 143.867 269.21 144.013V153.599C269.21 153.745 269.238 153.891 269.293 154.027C269.348 154.162 269.429 154.286 269.53 154.39C269.632 154.494 269.753 154.576 269.886 154.633C270.02 154.689 270.162 154.718 270.307 154.718H279.733C280.025 154.718 280.304 154.6 280.511 154.39C280.717 154.18 280.833 153.895 280.833 153.599V144.013C280.833 143.717 280.717 143.432 280.511 143.222C280.304 143.012 280.025 142.894 279.733 142.894Z" fill="white"/>
<path d="M299.524 77.5291H290.098C289.807 77.5301 289.528 77.6485 289.323 77.8583C289.117 78.0682 289.002 78.3523 289.002 78.6485V88.238C289.002 88.5337 289.118 88.8174 289.323 89.0265C289.529 89.2357 289.808 89.3532 290.098 89.3533H299.524C299.816 89.3534 300.095 89.236 300.301 89.027C300.508 88.8179 300.624 88.5342 300.625 88.238V78.6485C300.624 78.3519 300.508 78.0676 300.302 77.8579C300.095 77.6481 299.816 77.5299 299.524 77.5291V77.5291Z" fill="#FF8A00"/>
<path d="M299.524 93.8704H290.098C289.807 93.8714 289.528 93.9898 289.323 94.1997C289.117 94.4095 289.002 94.6937 289.002 94.9899V104.579C289.002 104.875 289.118 105.159 289.323 105.368C289.529 105.577 289.808 105.695 290.098 105.695H299.524C299.816 105.695 300.095 105.577 300.301 105.368C300.508 105.159 300.624 104.876 300.625 104.579V94.9899C300.624 94.6933 300.508 94.409 300.302 94.1992C300.096 93.9895 299.816 93.8712 299.524 93.8704Z" fill="#FF8A00"/>
<path d="M299.524 110.212H290.098C289.807 110.213 289.528 110.331 289.323 110.541C289.117 110.751 289.002 111.035 289.002 111.331V120.916C289.002 121.063 289.03 121.208 289.085 121.344C289.14 121.48 289.22 121.603 289.322 121.707C289.424 121.811 289.545 121.894 289.678 121.95C289.811 122.007 289.954 122.036 290.098 122.036H299.524C299.816 122.036 300.096 121.918 300.302 121.708C300.509 121.498 300.625 121.213 300.625 120.916V111.331C300.624 111.034 300.508 110.75 300.302 110.54C300.096 110.331 299.816 110.212 299.524 110.212V110.212Z" fill="#E6E6E6"/>
<path d="M299.524 126.553H290.098C289.807 126.554 289.528 126.672 289.323 126.882C289.117 127.092 289.002 127.376 289.002 127.672V137.257C289.002 137.404 289.03 137.55 289.085 137.685C289.14 137.821 289.22 137.944 289.322 138.048C289.424 138.152 289.545 138.235 289.678 138.291C289.811 138.348 289.954 138.377 290.098 138.377H299.524C299.816 138.377 300.096 138.259 300.303 138.049C300.509 137.839 300.625 137.554 300.625 137.257V127.672C300.624 127.376 300.508 127.091 300.302 126.882C300.096 126.672 299.816 126.553 299.524 126.553V126.553Z" fill="white"/>
<path d="M299.524 142.894H290.098C289.954 142.894 289.811 142.923 289.678 142.98C289.545 143.036 289.424 143.118 289.322 143.222C289.22 143.326 289.14 143.45 289.085 143.586C289.03 143.721 289.002 143.867 289.002 144.013V153.599C289.002 153.745 289.03 153.891 289.085 154.027C289.14 154.162 289.22 154.286 289.322 154.39C289.424 154.494 289.545 154.576 289.678 154.633C289.811 154.689 289.954 154.718 290.098 154.718H299.524C299.816 154.718 300.096 154.6 300.303 154.39C300.509 154.18 300.625 153.895 300.625 153.599V144.013C300.625 143.717 300.509 143.432 300.303 143.222C300.096 143.012 299.816 142.894 299.524 142.894Z" fill="#FF8A00"/>
<path d="M319.316 77.5291H309.89C309.599 77.5301 309.32 77.6485 309.115 77.8583C308.909 78.0682 308.794 78.3523 308.794 78.6485V88.238C308.794 88.5337 308.91 88.8174 309.115 89.0265C309.321 89.2357 309.599 89.3532 309.89 89.3533H319.316C319.607 89.3534 319.887 89.236 320.093 89.027C320.299 88.8179 320.416 88.5342 320.417 88.238V78.6485C320.416 78.3519 320.3 78.0676 320.093 77.8579C319.887 77.6481 319.608 77.5299 319.316 77.5291Z" fill="#FF8A00"/>
<path d="M319.316 93.8704H309.89C309.599 93.8714 309.32 93.9898 309.115 94.1997C308.909 94.4095 308.794 94.6937 308.794 94.9899V104.579C308.794 104.875 308.91 105.159 309.115 105.368C309.321 105.577 309.599 105.695 309.89 105.695H319.316C319.607 105.695 319.887 105.577 320.093 105.368C320.299 105.159 320.416 104.876 320.417 104.579V94.9899C320.416 94.6933 320.3 94.409 320.093 94.1992C319.887 93.9895 319.608 93.8712 319.316 93.8704V93.8704Z" fill="#FF8A00"/>
<path d="M319.316 110.212H309.89C309.599 110.213 309.32 110.331 309.115 110.541C308.909 110.751 308.794 111.035 308.794 111.331V120.916C308.794 121.063 308.822 121.208 308.876 121.344C308.931 121.48 309.012 121.603 309.114 121.707C309.216 121.811 309.337 121.894 309.47 121.95C309.603 122.007 309.746 122.036 309.89 122.036H319.316C319.608 122.036 319.888 121.918 320.094 121.708C320.301 121.498 320.417 121.213 320.417 120.916V111.331C320.416 111.034 320.3 110.75 320.093 110.54C319.887 110.331 319.608 110.212 319.316 110.212Z" fill="#E6E6E6"/>
<path d="M319.316 126.553H309.89C309.599 126.554 309.32 126.672 309.115 126.882C308.909 127.092 308.794 127.376 308.794 127.672V137.257C308.794 137.404 308.822 137.55 308.876 137.685C308.931 137.821 309.012 137.944 309.114 138.048C309.216 138.152 309.337 138.235 309.47 138.291C309.603 138.348 309.746 138.377 309.89 138.377H319.316C319.608 138.377 319.888 138.259 320.094 138.049C320.301 137.839 320.417 137.554 320.417 137.257V127.672C320.416 127.376 320.3 127.091 320.093 126.882C319.887 126.672 319.608 126.553 319.316 126.553V126.553Z" fill="#FF8A00"/>
<path d="M319.316 142.894H309.89C309.746 142.894 309.603 142.923 309.47 142.98C309.337 143.036 309.216 143.118 309.114 143.222C309.012 143.326 308.931 143.45 308.876 143.586C308.822 143.721 308.794 143.867 308.794 144.013V153.599C308.794 153.745 308.822 153.891 308.876 154.027C308.931 154.162 309.012 154.286 309.114 154.39C309.216 154.494 309.337 154.576 309.47 154.633C309.603 154.689 309.746 154.718 309.89 154.718H319.316C319.608 154.718 319.888 154.6 320.094 154.39C320.301 154.18 320.417 153.895 320.417 153.599V144.013C320.417 143.717 320.301 143.432 320.094 143.222C319.888 143.012 319.608 142.894 319.316 142.894V142.894Z" fill="#FF8A00"/>
<path d="M339.108 77.5291H329.682C329.391 77.5301 329.112 77.6485 328.906 77.8583C328.701 78.0682 328.585 78.3523 328.585 78.6485V88.238C328.586 88.5337 328.701 88.8174 328.907 89.0265C329.112 89.2357 329.391 89.3532 329.682 89.3533H339.108C339.399 89.3534 339.678 89.236 339.884 89.027C340.091 88.8179 340.207 88.5342 340.208 88.238V78.6485C340.207 78.3519 340.091 78.0676 339.885 77.8579C339.679 77.6481 339.399 77.5299 339.108 77.5291V77.5291Z" fill="#E6E6E6"/>
<path d="M339.108 93.8704H329.682C329.391 93.8714 329.112 93.9898 328.906 94.1997C328.701 94.4095 328.585 94.6937 328.585 94.9899V104.579C328.586 104.875 328.701 105.159 328.907 105.368C329.112 105.577 329.391 105.695 329.682 105.695H339.108C339.399 105.695 339.678 105.577 339.884 105.368C340.091 105.159 340.207 104.876 340.208 104.579V94.9899C340.207 94.6933 340.091 94.409 339.885 94.1992C339.679 93.9895 339.399 93.8712 339.108 93.8704V93.8704Z" fill="#FF8A00"/>
<path d="M339.108 110.212H329.682C329.391 110.213 329.112 110.331 328.906 110.541C328.701 110.751 328.585 111.035 328.585 111.331V120.916C328.585 121.063 328.613 121.208 328.668 121.344C328.723 121.48 328.804 121.603 328.905 121.707C329.007 121.811 329.128 121.894 329.261 121.95C329.395 122.007 329.537 122.036 329.682 122.036H339.108C339.4 122.036 339.679 121.918 339.886 121.708C340.092 121.498 340.208 121.213 340.208 120.916V111.331C340.207 111.034 340.091 110.75 339.885 110.54C339.679 110.331 339.399 110.212 339.108 110.212V110.212Z" fill="#FF8A00"/>
<path d="M339.108 126.553H329.682C329.391 126.554 329.112 126.672 328.906 126.882C328.701 127.092 328.585 127.376 328.585 127.672V137.257C328.585 137.404 328.613 137.55 328.668 137.685C328.723 137.821 328.804 137.944 328.905 138.048C329.007 138.152 329.128 138.235 329.261 138.291C329.395 138.348 329.537 138.377 329.682 138.377H339.108C339.4 138.377 339.679 138.259 339.886 138.049C340.092 137.839 340.208 137.554 340.208 137.257V127.672C340.207 127.376 340.091 127.091 339.885 126.882C339.679 126.672 339.399 126.553 339.108 126.553V126.553Z" fill="#FF8A00"/>
<path d="M339.108 142.894H329.682C329.537 142.894 329.395 142.923 329.261 142.98C329.128 143.036 329.007 143.118 328.905 143.222C328.804 143.326 328.723 143.45 328.668 143.586C328.613 143.721 328.585 143.867 328.585 144.013V153.599C328.585 153.745 328.613 153.891 328.668 154.027C328.723 154.162 328.804 154.286 328.905 154.39C329.007 154.494 329.128 154.576 329.261 154.633C329.395 154.689 329.537 154.718 329.682 154.718H339.108C339.4 154.718 339.679 154.6 339.886 154.39C340.092 154.18 340.208 153.895 340.208 153.599V144.013C340.208 143.717 340.092 143.432 339.886 143.222C339.679 143.012 339.4 142.894 339.108 142.894V142.894Z" fill="#E6E6E6"/>
<path d="M358.9 77.5291H349.473C349.182 77.5301 348.903 77.6485 348.698 77.8583C348.492 78.0682 348.377 78.3523 348.377 78.6485V88.238C348.377 88.5337 348.493 88.8174 348.698 89.0265C348.904 89.2357 349.183 89.3532 349.473 89.3533H358.9C359.191 89.3534 359.47 89.236 359.676 89.027C359.883 88.8179 359.999 88.5342 360 88.238V78.6485C359.999 78.3519 359.883 78.0676 359.677 77.8579C359.471 77.6481 359.191 77.5299 358.9 77.5291V77.5291Z" fill="#E6E6E6"/>
<path d="M358.9 93.8704H349.473C349.182 93.8714 348.903 93.9898 348.698 94.1997C348.492 94.4095 348.377 94.6937 348.377 94.9899V104.579C348.377 104.875 348.493 105.159 348.698 105.368C348.904 105.577 349.183 105.695 349.473 105.695H358.9C359.191 105.695 359.47 105.577 359.676 105.368C359.883 105.159 359.999 104.876 360 104.579V94.9899C359.999 94.6933 359.883 94.409 359.677 94.1992C359.471 93.9895 359.191 93.8712 358.9 93.8704V93.8704Z" fill="#E6E6E6"/>
<path d="M358.9 110.212H349.473C349.182 110.213 348.903 110.331 348.698 110.541C348.492 110.751 348.377 111.035 348.377 111.331V120.916C348.377 121.063 348.405 121.208 348.46 121.344C348.515 121.48 348.595 121.603 348.697 121.707C348.799 121.811 348.92 121.894 349.053 121.95C349.186 122.007 349.329 122.036 349.473 122.036H358.9C359.191 122.036 359.471 121.918 359.678 121.708C359.884 121.498 360 121.213 360 120.916V111.331C359.999 111.034 359.883 110.75 359.677 110.54C359.471 110.331 359.191 110.212 358.9 110.212V110.212Z" fill="#FF8A00"/>
<path d="M358.9 126.553H349.473C349.182 126.554 348.903 126.672 348.698 126.882C348.492 127.092 348.377 127.376 348.377 127.672V137.257C348.377 137.404 348.405 137.55 348.46 137.685C348.515 137.821 348.595 137.944 348.697 138.048C348.799 138.152 348.92 138.235 349.053 138.291C349.186 138.348 349.329 138.377 349.473 138.377H358.9C359.191 138.377 359.471 138.259 359.678 138.049C359.884 137.839 360 137.554 360 137.257V127.672C359.999 127.376 359.883 127.091 359.677 126.882C359.471 126.672 359.191 126.553 358.9 126.553V126.553Z" fill="#E6E6E6"/>
<path d="M358.9 142.894H349.473C349.329 142.894 349.186 142.923 349.053 142.98C348.92 143.036 348.799 143.118 348.697 143.222C348.595 143.326 348.515 143.45 348.46 143.586C348.405 143.721 348.377 143.867 348.377 144.013V153.599C348.377 153.745 348.405 153.891 348.46 154.027C348.515 154.162 348.595 154.286 348.697 154.39C348.799 154.494 348.92 154.576 349.053 154.633C349.186 154.689 349.329 154.718 349.473 154.718H358.9C359.191 154.718 359.471 154.6 359.678 154.39C359.884 154.18 360 153.895 360 153.599V144.013C360 143.717 359.884 143.432 359.678 143.222C359.471 143.012 359.191 142.894 358.9 142.894V142.894Z" fill="#E6E6E6"/>
<path d="M142.254 284.217H141.994L142.217 284.187L142.254 284.217Z" fill="#2F2E41"/>
<path d="M119.705 105.52C135.676 105.52 148.623 92.3486 148.623 76.1008C148.623 59.853 135.676 46.6815 119.705 46.6815C103.734 46.6815 90.7866 59.853 90.7866 76.1008C90.7866 92.3486 103.734 105.52 119.705 105.52Z" fill="#FFB6B6"/>
<path d="M145.029 54.5311C145.029 54.5311 152.592 39.8215 135.953 38.4842C135.953 38.4842 121.767 25.3931 107.308 36.091C107.308 36.091 99.4214 36.091 95.1087 45.1704C95.1087 45.1704 88.9058 42.7771 87.5427 49.1821C87.5427 49.1821 83.0038 62.5546 87.5427 74.5897C92.0815 86.6249 93.5891 87.9621 93.5891 87.9621C93.5891 87.9621 86.1308 62.7298 104.285 61.3925C122.439 60.0552 142.754 48.5135 144.267 63.2231C145.78 77.9328 148.056 81.5571 148.056 81.5571C148.056 81.5571 162.426 60.5487 145.029 54.5311Z" fill="#2F2E41"/>
<path d="M194.509 148.604L194.416 149.103L193.37 154.718L186.145 193.558L185.718 195.845L184.82 200.68L183.593 207.277L180.871 221.896L180.093 226.086L179.801 227.657L179.699 228.208L178.89 232.545L178.645 233.854L176.673 248.722L174.95 261.679L180.715 267.544L177.278 271.04L175.022 284.186L175.026 284.216H82.9541C79.2294 281.762 75.5583 279.231 71.9408 276.625L72.6985 270.855C72.6985 270.855 75.3057 260.551 74.2094 259.319C73.1175 258.088 70.7218 255.887 70.7218 255.887L73.7397 248.722L74.1587 247.728L73.4561 232.902L73.4392 232.545L73.2064 227.657L73.1767 227.029L73.1302 226.086L72.2371 207.277L72.2202 206.967L71.9493 201.266L71.6953 195.845L71.5853 193.558L70.4975 170.681L69.761 155.145L69.1177 141.619L71.7038 140.728L99.364 131.165L110.822 116.012L134.668 116.193L146.342 116.283L165.82 134.661L170.252 136.814L170.286 136.831L173.464 138.377L181.523 142.291L190.044 146.434L194.416 148.556L194.509 148.604Z" fill="#CACACA"/>
<path d="M113.904 240.081C112.156 240.769 110.281 241.06 108.412 240.932C106.542 240.804 104.722 240.26 103.081 239.339C101.44 238.418 100.018 237.143 98.914 235.602C97.8101 234.061 97.0516 232.293 96.6921 230.422L51.5898 223.912L67.2686 205.87L107.695 214.817C110.825 214.411 113.992 215.187 116.597 216.998C119.202 218.809 121.064 221.529 121.829 224.643C122.594 227.757 122.21 231.049 120.75 233.894C119.289 236.739 116.853 238.94 113.904 240.081V240.081Z" fill="#FFB6B6"/>
<path d="M93.7938 207.277C92.9584 206.199 91.7756 205.457 90.4543 205.18L71.9493 201.266L70.0489 200.865C68.9445 200.631 67.9011 200.162 66.9872 199.489C66.0733 198.816 65.3093 197.954 64.7454 196.96C64.1604 195.916 63.8065 194.755 63.7084 193.558C63.6202 192.47 63.7483 191.374 64.0851 190.337L70.4975 170.68L74.6582 157.926C75.1624 156.388 75.46 154.787 75.5428 153.168C75.7746 148.687 74.4117 144.27 71.7038 140.728C69.3231 137.614 66.0211 135.363 62.2856 134.305C58.5501 133.247 54.5793 133.44 50.9598 134.855C50.8539 134.893 50.7439 134.936 50.6381 134.98C48.0423 136.034 45.7232 137.688 43.864 139.811C42.0047 141.934 40.6563 144.468 39.9253 147.213L35.4049 163.942L26.0804 198.428C25.147 201.883 24.9585 205.503 25.5276 209.039C26.0968 212.576 27.4103 215.945 29.3782 218.917C31.3461 221.889 33.922 224.393 36.9295 226.259C39.937 228.124 43.3051 229.306 46.8033 229.724L73.4561 232.902L85.7899 234.375C87.2161 234.549 88.6546 234.17 89.8186 233.314C90.9827 232.458 91.787 231.187 92.0711 229.754C92.0911 229.676 92.1066 229.597 92.1177 229.517L92.414 227.657L94.924 211.992L94.9493 211.833C95.0801 211.033 95.0448 210.215 94.8458 209.43C94.6468 208.646 94.2885 207.912 93.7938 207.277Z" fill="#CACACA"/>
<path d="M142.632 240.583C144.457 241.014 146.353 241.033 148.187 240.638C150.02 240.242 151.746 239.443 153.243 238.296C154.74 237.149 155.971 235.682 156.851 233.999C157.73 232.315 158.236 230.456 158.332 228.552L202.082 215.636L184.058 200.023L145.277 214.681C142.122 214.728 139.093 215.951 136.765 218.117C134.437 220.284 132.971 223.244 132.645 226.437C132.319 229.63 133.156 232.833 134.996 235.44C136.837 238.047 139.554 239.877 142.632 240.583V240.583Z" fill="#FFB6B6"/>
<path d="M223.803 186.746L202.995 138.028C201.294 134.029 198.254 130.771 194.416 128.835C193.23 128.241 191.984 127.779 190.7 127.457C190.501 127.405 190.302 127.358 190.103 127.319C187.38 126.715 184.556 126.768 181.858 127.474C179.391 128.119 177.085 129.286 175.091 130.898C173.097 132.51 171.46 134.532 170.286 136.831C170.273 136.85 170.262 136.87 170.252 136.891C168.94 139.473 168.243 142.331 168.216 145.237C168.188 148.142 168.832 151.014 170.095 153.62L170.354 154.146L185.058 184.188C185.56 185.216 185.843 186.339 185.888 187.486C185.933 188.632 185.739 189.775 185.32 190.84C184.9 191.905 184.264 192.868 183.453 193.665C182.642 194.462 181.674 195.076 180.613 195.466L179.581 195.845L161.008 202.67C159.614 203.176 158.468 204.212 157.81 205.56C157.153 206.909 157.035 208.464 157.482 209.899L157.529 210.05L162.735 226.998C162.76 227.076 162.786 227.153 162.815 227.231C162.861 227.377 162.918 227.52 162.984 227.657C163.538 228.92 164.516 229.94 165.742 230.534C166.969 231.129 168.364 231.258 169.676 230.9L179.699 228.208L181.743 227.657L207.626 220.703C211.031 219.788 214.202 218.134 216.922 215.856C219.641 213.578 221.844 210.729 223.38 207.504C224.916 204.279 225.75 200.755 225.823 197.172C225.896 193.589 225.207 190.033 223.803 186.746L223.803 186.746Z" fill="#CACACA"/>
<path d="M19.0037 227.657C25.0015 235.1 31.4699 242.136 38.3679 248.722H229.669C231.512 248.725 233.279 249.472 234.582 250.798C235.885 252.124 236.618 253.922 236.619 255.797L236.894 305.113C248.663 299.613 259.684 292.589 269.685 284.216C272.461 281.895 275.152 279.474 277.756 276.952C279.462 275.307 281.127 273.622 282.751 271.897C294.925 258.994 304.784 244.021 311.879 227.657H19.0037Z" fill="#3F3D56"/>
<path d="M282.751 271.897C281.13 273.624 279.465 275.309 277.756 276.952H237.034V271.897H282.751Z" fill="white"/>
<path d="M194.128 110.211C193.927 109.834 193.629 109.518 193.266 109.298C192.904 109.079 192.489 108.963 192.067 108.963H53.3048C52.6827 108.964 52.0866 109.217 51.6471 109.665C51.2075 110.113 50.9605 110.72 50.96 111.353V195.845H194.416V111.353C194.418 110.953 194.319 110.56 194.128 110.211V110.211Z" fill="#3F3D56"/>
<path d="M50.8342 193.557V203.984C50.8342 204.416 50.9179 204.844 51.0805 205.243C51.2431 205.642 51.4814 206.005 51.7818 206.311C52.0823 206.617 52.4389 206.859 52.8315 207.024C53.224 207.19 53.6447 207.275 54.0696 207.275H107.018V227.852H106.315C106.26 227.852 106.205 227.863 106.154 227.884C106.103 227.906 106.057 227.937 106.018 227.977C105.979 228.017 105.948 228.064 105.926 228.116C105.905 228.168 105.894 228.223 105.894 228.279V229.711C105.894 229.767 105.905 229.822 105.926 229.874C105.948 229.926 105.979 229.973 106.018 230.013C106.057 230.053 106.103 230.084 106.154 230.106C106.205 230.127 106.26 230.138 106.315 230.138H139.185C139.24 230.138 139.294 230.127 139.345 230.106C139.396 230.084 139.443 230.053 139.482 230.013C139.521 229.973 139.552 229.926 139.573 229.874C139.594 229.822 139.605 229.767 139.605 229.711V228.279C139.605 228.223 139.594 228.168 139.573 228.116C139.552 228.064 139.521 228.017 139.482 227.977C139.443 227.937 139.396 227.906 139.345 227.884C139.294 227.863 139.24 227.852 139.185 227.852H138.481V207.275H191.43C191.855 207.275 192.275 207.19 192.668 207.024C193.06 206.859 193.417 206.617 193.718 206.311C194.018 206.005 194.256 205.642 194.419 205.243C194.581 204.844 194.665 204.416 194.665 203.984V193.557H50.8342Z" fill="#3F3D56"/>
<path d="M121.012 163.632C128.33 163.632 134.263 157.596 134.263 150.151C134.263 142.706 128.33 136.671 121.012 136.671C113.694 136.671 107.761 142.706 107.761 150.151C107.761 157.596 113.694 163.632 121.012 163.632Z" fill="#FF8A00"/>
<path d="M154.773 74.4933H152.657C152.657 58.2167 136.823 47.5508 120.849 47.5422C118.525 47.5353 116.207 47.7646 113.929 48.2268C111.364 48.7479 108.701 49.3722 106.086 50.1861C95.7706 53.4026 86.2049 59.6205 86.2049 74.4933C86.2027 77.3818 86.564 80.2586 87.28 83.0536L85.2314 83.5962C84.4716 80.6237 84.0876 77.5647 84.0886 74.4933C84.0886 61.4979 89.3328 52.5716 98.3906 47.2494C103.152 44.4505 108.964 42.6463 115.622 41.7679C118.392 41.3929 121.193 41.3063 123.981 41.5095C142.351 42.853 154.773 57.1833 154.773 74.4933Z" fill="#FF8A00"/>
<path d="M158.299 75.686L157.465 69.4165C157.26 67.8332 156.51 66.375 155.349 65.3C154.604 64.5992 153.711 64.08 152.74 63.7816C151.768 63.4832 150.743 63.4134 149.741 63.5776L148.416 63.7628C148.053 63.8113 147.704 63.9326 147.388 64.1196C147.072 64.3066 146.795 64.5556 146.575 64.8522C146.352 65.1477 146.189 65.4852 146.096 65.8451C146.002 66.2051 145.979 66.5803 146.029 66.9492L147.955 81.3915C148.034 81.9801 148.293 82.5285 148.696 82.9589C149.098 83.3893 149.624 83.68 150.198 83.7899C150.368 83.8246 150.541 83.8419 150.714 83.8416C150.839 83.8416 150.963 83.8329 151.087 83.8157L152.568 83.6134C153.471 83.4914 154.34 83.1829 155.122 82.7068C155.904 82.2307 156.582 81.597 157.114 80.8446C157.228 80.681 157.338 80.5131 157.44 80.3408C158.233 78.9319 158.536 77.2918 158.299 75.686Z" fill="#FF8A00"/>
<path d="M147.561 64.0255C147.172 64.2176 146.834 64.501 146.575 64.8523C146.352 65.1478 146.189 65.4853 146.096 65.8452C146.002 66.2051 145.979 66.5804 146.029 66.9493L147.955 81.3915C148.034 81.9802 148.293 82.5285 148.696 82.959C149.098 83.3894 149.624 83.6801 150.198 83.79L147.561 64.0255Z" fill="white"/>
<path d="M158.299 75.6861L157.465 69.4166C157.26 67.8333 156.51 66.3751 155.349 65.3L157.266 79.6691C157.295 79.8998 157.353 80.1256 157.44 80.3408C158.233 78.9319 158.536 77.2918 158.299 75.6861V75.6861Z" fill="#3F3D56"/>
<path d="M151.709 80.2033C152.288 80.1234 152.579 78.7214 152.359 77.0718C152.139 75.4222 151.491 74.1498 150.912 74.2297C150.333 74.3096 150.042 75.7116 150.262 77.3612C150.482 79.0108 151.13 80.2833 151.709 80.2033Z" fill="#3F3D56"/>
<path d="M150.439 72.4526C151.018 72.3727 151.309 70.9706 151.089 69.3211C150.869 67.6715 150.222 66.399 149.643 66.4789C149.063 66.5589 148.772 67.9609 148.992 69.6105C149.212 71.2601 149.86 72.5325 150.439 72.4526Z" fill="#3F3D56"/>
<path d="M158.481 75.4668C159.06 75.3868 159.351 73.9848 159.131 72.3352C158.911 70.6856 158.264 69.4132 157.685 69.4931C157.105 69.573 156.814 70.9751 157.034 72.6246C157.254 74.2742 157.902 75.5467 158.481 75.4668Z" fill="#3F3D56"/>
<path d="M120.849 47.5422C118.525 47.5353 116.207 47.7646 113.928 48.2268C111.363 48.7479 108.701 49.3722 106.085 50.1861C102.001 49.9837 98.9956 48.9072 98.3904 47.2494C103.152 44.4505 108.963 42.6463 115.621 41.7679C118.392 41.3929 121.193 41.3063 123.981 41.5095C124.276 41.6855 124.531 41.9231 124.729 42.2066C124.928 42.4901 125.065 42.8131 125.132 43.1544C125.331 44.6529 123.651 46.2461 120.849 47.5422Z" fill="#3F3D56"/>
<path d="M93.8278 89.4352L90.5687 75.6518C90.4525 75.1545 90.1944 74.7032 89.8269 74.3546C89.4594 74.0061 88.9989 73.7757 88.5032 73.6925C88.3631 73.6704 88.2216 73.6588 88.0799 73.6581C87.8803 73.6588 87.6814 73.6834 87.4873 73.7313L86.226 74.0413C84.602 74.4409 83.2002 75.4796 82.3281 76.9294C81.456 78.3793 81.185 80.1219 81.5744 81.7749L83.0346 87.9583C83.368 89.414 84.1621 90.7181 85.2948 91.67C85.4784 91.8208 85.6706 91.9602 85.8705 92.0877C86.58 92.5401 87.3714 92.8433 88.1979 92.9793C89.0245 93.1154 89.8695 93.0817 90.683 92.88L91.9401 92.57C92.2724 92.4911 92.5852 92.343 92.8585 92.1351C93.265 91.8336 93.5742 91.4159 93.7468 90.9351C93.9194 90.4544 93.9476 89.9323 93.8278 89.4352Z" fill="#FF8A00"/>
<path d="M86.9955 86.8704C87.5637 86.7313 87.7139 85.3065 87.3311 83.688C86.9482 82.0696 86.1773 80.8703 85.6091 81.0094C85.0409 81.1485 84.8907 82.5733 85.2735 84.1918C85.6564 85.8102 86.4273 87.0095 86.9955 86.8704Z" fill="#3F3D56"/>
<path d="M82.7626 88.1623C83.3308 88.0232 83.481 86.5984 83.0982 84.9799C82.7153 83.3614 81.9444 82.1621 81.3762 82.3012C80.808 82.4403 80.6578 83.8651 81.0406 85.4836C81.4234 87.1021 82.1944 88.3014 82.7626 88.1623Z" fill="#3F3D56"/>
<path d="M94.0353 89.3834L90.7762 75.6C90.6492 75.062 90.369 74.574 89.9707 74.1971C89.5725 73.8203 89.0738 73.5713 88.5371 73.4814L92.9856 92.3072C93.4249 91.9799 93.7591 91.5275 93.9459 91.0071C94.1327 90.4868 94.1638 89.9218 94.0353 89.3834V89.3834Z" fill="white"/>
<path d="M82.3108 79.0447C82.2209 78.6614 82.0521 78.3019 81.8156 77.9897C81.3575 79.1968 81.2733 80.5176 81.5744 81.7747L83.0346 87.9581C83.368 89.4138 84.1621 90.7179 85.2948 91.6699L82.3108 79.0447Z" fill="#3F3D56"/>
</g>
<defs>
<clipPath id="clip0_28_539">
<rect width="360" height="319" fill="white" transform="translate(0 -0.000305176)"/>
</clipPath>
</defs>
</svg>
