<svg width="79" height="39" viewBox="0 0 79 39" fill="none" xmlns="http://www.w3.org/2000/svg">
<path d="M0.52002 17.5601V14.5601L17.24 5.9201L18.96 9.3601L5.24002 16.0401L18.96 22.7601L17.24 26.2001L0.52002 17.5601Z" fill="white"/>
<path d="M21.1178 35.4001L31.7978 0.600098H35.8778L25.1978 35.4001H21.1178Z" fill="white"/>
<path d="M46.0266 20.0401C46.9599 20.0401 47.6532 19.6268 48.1066 18.8001C48.5866 17.9734 48.8266 16.8534 48.8266 15.4401C48.8266 14.0268 48.5866 12.9334 48.1066 12.1601C47.6532 11.3601 46.9866 10.9601 46.1066 10.9601C45.1999 10.9601 44.5199 11.3601 44.0666 12.1601C43.6132 12.9601 43.3866 14.0668 43.3866 15.4801C43.3866 16.8934 43.5999 18.0134 44.0266 18.8401C44.4532 19.6401 45.1199 20.0401 46.0266 20.0401ZM40.7066 32.3201C40.7066 33.4934 41.1466 34.3468 42.0266 34.8801C42.9066 35.4401 44.2532 35.7201 46.0666 35.7201C48.0666 35.7201 49.5732 35.4268 50.5866 34.8401C51.5999 34.2534 52.1066 33.5201 52.1066 32.6401C52.1066 32.0534 51.8932 31.5201 51.4666 31.0401C51.0399 30.5868 50.2799 30.3601 49.1866 30.3601H44.9866C43.5199 30.3601 42.3066 30.2401 41.3466 30.0001C41.1332 30.3734 40.9732 30.7334 40.8666 31.0801C40.7599 31.4268 40.7066 31.8401 40.7066 32.3201ZM46.0666 21.9201C44.6799 21.9201 43.4666 21.7601 42.4266 21.4401C42.1066 22.0001 41.9466 22.6134 41.9466 23.2801C41.9466 23.7334 42.1199 24.1068 42.4666 24.4001C42.8133 24.6668 43.4132 24.8001 44.2666 24.8001H48.9466C50.9732 24.8001 52.5866 25.0534 53.7866 25.5601C54.9866 26.0401 55.8399 26.7201 56.3466 27.6001C56.8799 28.4534 57.1466 29.4668 57.1466 30.6401C57.1466 31.9734 56.7066 33.2001 55.8266 34.3201C54.9466 35.4668 53.6266 36.3734 51.8666 37.0401C50.1333 37.7334 47.9866 38.0801 45.4266 38.0801C43.2132 38.0801 41.4799 37.8534 40.2266 37.4001C38.9732 36.9734 38.0932 36.4001 37.5866 35.6801C37.0799 34.9601 36.8266 34.2001 36.8266 33.4001C36.8266 31.6934 37.9333 30.3201 40.1466 29.2801C39.3199 28.9334 38.7199 28.4801 38.3466 27.9201C37.9999 27.3601 37.8266 26.7468 37.8266 26.0801C37.8266 25.1468 38.0932 24.2668 38.6266 23.4401C39.1866 22.5868 39.9599 21.7334 40.9466 20.8801C39.8532 20.3201 39.0399 19.5734 38.5066 18.6401C37.9732 17.7068 37.7066 16.6668 37.7066 15.5201C37.7066 13.6534 38.3866 12.1068 39.7466 10.8801C41.1332 9.65343 43.2399 9.0401 46.0666 9.0401C47.5066 9.0401 48.7599 9.2001 49.8266 9.5201C50.8933 9.8401 51.7599 10.2934 52.4266 10.8801L56.9066 8.9601L57.5466 9.3601V12.4401H53.7466C54.2266 13.3201 54.4666 14.3468 54.4666 15.5201C54.4666 17.3068 53.7732 18.8268 52.3866 20.0801C51.0266 21.3068 48.9199 21.9201 46.0666 21.9201Z" fill="url(#paint0_linear_32_1382)"/>
<path d="M78.1853 14.5601V17.5601L61.4653 26.2001L59.7453 22.7601L73.4653 16.0401L59.7453 9.3601L61.4653 5.9201L78.1853 14.5601Z" fill="white"/>
<defs>
<linearGradient id="paint0_linear_32_1382" x1="39.3527" y1="0.600098" x2="39.3527" y2="38.0801" gradientUnits="userSpaceOnUse">
<stop stop-color="#FFB154" stop-opacity="0.94"/>
<stop offset="1" stop-color="#E37B00"/>
</linearGradient>
</defs>
</svg>
