<svg width="227" height="47" viewBox="0 0 227 47" fill="none" xmlns="http://www.w3.org/2000/svg">
<path d="M0.823975 22.272V18.672L20.888 8.30402L22.952 12.432L6.48797 20.448L22.952 28.512L20.888 32.64L0.823975 22.272Z" fill="#141414"/>
<path d="M25.5413 43.68L38.3573 1.92001H43.2533L30.4373 43.68H25.5413Z" fill="#141414"/>
<path d="M55.4319 25.248C56.5519 25.248 57.3838 24.752 57.9278 23.76C58.5038 22.768 58.7919 21.424 58.7919 19.728C58.7919 18.032 58.5038 16.72 57.9278 15.792C57.3838 14.832 56.5839 14.352 55.5279 14.352C54.4399 14.352 53.6238 14.832 53.0798 15.792C52.5358 16.752 52.2639 18.08 52.2639 19.776C52.2639 21.472 52.5198 22.816 53.0318 23.808C53.5438 24.768 54.3439 25.248 55.4319 25.248ZM49.0479 39.984C49.0479 41.392 49.5759 42.416 50.6319 43.056C51.6879 43.728 53.3039 44.064 55.4799 44.064C57.8799 44.064 59.6878 43.712 60.9039 43.008C62.1199 42.304 62.7279 41.424 62.7279 40.368C62.7279 39.664 62.4719 39.024 61.9599 38.448C61.4479 37.904 60.5359 37.632 59.2239 37.632H54.1838C52.4238 37.632 50.9678 37.488 49.8158 37.2C49.5598 37.648 49.3678 38.08 49.2398 38.496C49.1118 38.912 49.0479 39.408 49.0479 39.984ZM55.4799 27.504C53.8159 27.504 52.3599 27.312 51.1119 26.928C50.7279 27.6 50.5359 28.336 50.5359 29.136C50.5359 29.68 50.7439 30.128 51.1599 30.48C51.5759 30.8 52.2959 30.96 53.3199 30.96H58.9359C61.3679 30.96 63.3039 31.264 64.7439 31.872C66.1839 32.448 67.2078 33.264 67.8158 34.32C68.4558 35.344 68.7758 36.56 68.7758 37.968C68.7758 39.568 68.2478 41.04 67.1918 42.384C66.1358 43.76 64.5518 44.848 62.4398 45.648C60.3598 46.48 57.7838 46.896 54.7118 46.896C52.0558 46.896 49.9759 46.624 48.4719 46.08C46.9679 45.568 45.9118 44.88 45.3038 44.016C44.6958 43.152 44.3918 42.24 44.3918 41.28C44.3918 39.232 45.7199 37.584 48.3759 36.336C47.3839 35.92 46.6639 35.376 46.2159 34.704C45.7999 34.032 45.5919 33.296 45.5919 32.496C45.5919 31.376 45.9118 30.32 46.5518 29.328C47.2238 28.304 48.1518 27.28 49.3358 26.256C48.0238 25.584 47.0478 24.688 46.4078 23.568C45.7678 22.448 45.4478 21.2 45.4478 19.824C45.4478 17.584 46.2639 15.728 47.8959 14.256C49.5599 12.784 52.0879 12.048 55.4799 12.048C57.2079 12.048 58.7118 12.24 59.9918 12.624C61.2718 13.008 62.3119 13.552 63.1119 14.256L68.4879 11.952L69.2559 12.432V16.128H64.6959C65.2719 17.184 65.5599 18.416 65.5599 19.824C65.5599 21.968 64.7279 23.792 63.0639 25.296C61.4319 26.768 58.9039 27.504 55.4799 27.504Z" fill="url(#paint0_linear_32_1383)"/>
<path d="M89.6544 36.672C86.8703 36.672 85.1104 35.52 84.3744 33.216C83.3504 34.304 82.3584 35.168 81.3984 35.808C80.4704 36.416 79.1744 36.72 77.5104 36.72C75.6544 36.72 74.1343 36.192 72.9503 35.136C71.7983 34.08 71.2224 32.56 71.2224 30.576C71.2224 29.424 71.4783 28.384 71.9903 27.456C72.5023 26.528 73.4304 25.664 74.7744 24.864C76.1184 24.064 78.0224 23.312 80.4864 22.608C80.9664 22.448 81.5264 22.288 82.1664 22.128C82.8064 21.968 83.4624 21.808 84.1344 21.648V20.064C84.1344 17.92 83.8624 16.464 83.3184 15.696C82.8064 14.928 81.7824 14.544 80.2464 14.544C80.0224 14.544 79.8144 14.544 79.6224 14.544C79.4304 14.544 79.2063 14.56 78.9503 14.592L78.7104 16.704C78.6783 18.272 78.3103 19.408 77.6063 20.112C76.9343 20.816 76.1344 21.168 75.2064 21.168C73.4464 21.168 72.3743 20.368 71.9903 18.768C72.1183 16.784 73.1264 15.168 75.0144 13.92C76.9024 12.672 79.5743 12.048 83.0303 12.048C86.1024 12.048 88.2944 12.752 89.6064 14.16C90.9504 15.568 91.6224 17.888 91.6224 21.12V31.872C91.6224 32.8 91.9744 33.264 92.6784 33.264C92.9344 33.264 93.1744 33.2 93.3984 33.072C93.6224 32.912 93.8623 32.624 94.1183 32.208L95.4144 33.072C94.8384 34.352 94.0863 35.28 93.1583 35.856C92.2623 36.4 91.0943 36.672 89.6544 36.672ZM78.3263 29.328C78.3263 30.512 78.5983 31.392 79.1423 31.968C79.7183 32.544 80.4064 32.832 81.2064 32.832C81.5584 32.832 81.9263 32.752 82.3103 32.592C82.6943 32.432 83.3024 32.064 84.1344 31.488V23.712C83.7184 23.84 83.3024 23.984 82.8864 24.144C82.5024 24.272 82.1663 24.4 81.8783 24.528C80.7903 24.976 79.9263 25.616 79.2863 26.448C78.6463 27.248 78.3263 28.208 78.3263 29.328Z" fill="#141414"/>
<path d="M96.6264 36.048V33.792L99.1703 33.264C99.2023 32.112 99.2184 30.864 99.2184 29.52C99.2184 28.144 99.2184 26.96 99.2184 25.968V5.71201L96.2423 5.32801V3.31201L106.178 1.15202L106.946 1.63202L106.754 8.35201V15.12C108.77 13.072 111.09 12.048 113.714 12.048C115.474 12.048 117.058 12.512 118.466 13.44C119.874 14.336 120.994 15.696 121.826 17.52C122.69 19.312 123.122 21.536 123.122 24.192C123.122 26.784 122.642 29.024 121.682 30.912C120.722 32.768 119.458 34.208 117.89 35.232C116.354 36.224 114.674 36.72 112.85 36.72C110.226 36.72 108.114 35.776 106.514 33.888L105.698 36.672L96.6264 36.048ZM110.21 16.224C109.602 16.224 109.026 16.352 108.482 16.608C107.938 16.864 107.41 17.2 106.898 17.616V31.344C107.89 32.24 108.978 32.688 110.162 32.688C111.57 32.688 112.722 32 113.618 30.624C114.546 29.248 115.01 27.152 115.01 24.336C115.01 21.488 114.562 19.424 113.666 18.144C112.802 16.864 111.65 16.224 110.21 16.224Z" fill="#141414"/>
<path d="M125.827 36V33.744L128.467 33.216C128.499 32.032 128.515 30.768 128.515 29.424C128.515 28.08 128.515 26.912 128.515 25.92V23.088C128.515 22.192 128.499 21.456 128.467 20.88C128.467 20.304 128.451 19.776 128.419 19.296C128.419 18.784 128.403 18.208 128.371 17.568L125.443 17.136V15.264L134.899 12.048L135.763 12.576L136.195 18.24C136.867 16.192 137.811 14.656 139.027 13.632C140.243 12.576 141.443 12.048 142.627 12.048C143.683 12.048 144.595 12.352 145.363 12.96C146.131 13.536 146.611 14.416 146.803 15.6C146.771 16.848 146.435 17.824 145.795 18.528C145.155 19.2 144.355 19.536 143.395 19.536C142.051 19.536 140.819 18.784 139.699 17.28L139.411 16.896C138.707 17.568 138.051 18.416 137.443 19.44C136.867 20.464 136.451 21.536 136.195 22.656V25.92C136.195 26.912 136.195 28.048 136.195 29.328C136.195 30.608 136.211 31.808 136.243 32.928L140.035 33.744V36H125.827Z" fill="#141414"/>
<path d="M148.284 36V33.744L150.876 33.168C150.908 32.016 150.924 30.768 150.924 29.424C150.924 28.08 150.924 26.912 150.924 25.92V23.616C150.924 22.304 150.908 21.216 150.876 20.352C150.876 19.456 150.844 18.528 150.78 17.568L147.804 17.136V15.264L157.884 12.048L158.7 12.576L158.556 19.536V25.92C158.556 26.912 158.556 28.096 158.556 29.472C158.556 30.816 158.572 32.08 158.604 33.264L161.004 33.744V36H148.284ZM154.668 8.49602C153.548 8.49602 152.588 8.14402 151.788 7.44001C150.988 6.70401 150.588 5.79202 150.588 4.70402C150.588 3.58401 150.988 2.67201 151.788 1.96801C152.588 1.23201 153.548 0.864014 154.668 0.864014C155.788 0.864014 156.748 1.23201 157.548 1.96801C158.348 2.67201 158.748 3.58401 158.748 4.70402C158.748 5.79202 158.348 6.70401 157.548 7.44001C156.748 8.14402 155.788 8.49602 154.668 8.49602Z" fill="#141414"/>
<path d="M175.279 14.544C174.383 14.544 173.551 15.104 172.783 16.224C172.047 17.312 171.631 19.328 171.535 22.272H175.615C176.767 22.272 177.535 22.048 177.919 21.6C178.335 21.12 178.543 20.336 178.543 19.248C178.543 17.648 178.223 16.464 177.583 15.696C176.943 14.928 176.175 14.544 175.279 14.544ZM175.375 36.72C173.039 36.72 170.975 36.24 169.183 35.28C167.391 34.288 165.983 32.88 164.959 31.056C163.935 29.2 163.423 26.992 163.423 24.432C163.423 21.744 164.015 19.488 165.199 17.664C166.415 15.808 167.967 14.416 169.855 13.488C171.743 12.528 173.711 12.048 175.759 12.048C177.871 12.048 179.663 12.496 181.135 13.392C182.639 14.288 183.775 15.504 184.543 17.04C185.311 18.544 185.695 20.272 185.695 22.224C185.695 23.152 185.599 24 185.407 24.768H171.535C171.695 27.296 172.383 29.168 173.599 30.384C174.847 31.568 176.303 32.16 177.967 32.16C179.279 32.16 180.399 31.92 181.327 31.44C182.255 30.928 183.071 30.304 183.775 29.568L185.455 31.104C184.463 32.992 183.119 34.4 181.423 35.328C179.727 36.256 177.711 36.72 175.375 36.72Z" fill="#141414"/>
<path d="M187.514 36V33.744L190.154 33.168C190.186 31.952 190.202 30.736 190.202 29.52C190.234 28.304 190.25 27.104 190.25 25.92V5.80802L187.274 5.32801V3.31201L197.354 1.15202L198.122 1.63202L197.93 8.35201V25.92C197.93 27.136 197.93 28.352 197.93 29.568C197.962 30.784 197.994 32 198.026 33.216L200.666 33.744V36H187.514Z" fill="#141414"/>
<path d="M226.069 18.672V22.272L206.005 32.64L203.941 28.512L220.405 20.448L203.941 12.432L206.005 8.30402L226.069 18.672Z" fill="#141414"/>
<defs>
<linearGradient id="paint0_linear_32_1383" x1="113.447" y1="0.864014" x2="113.447" y2="46.896" gradientUnits="userSpaceOnUse">
<stop stop-color="#FFB154" stop-opacity="0.94"/>
<stop offset="1" stop-color="#E37B00"/>
</linearGradient>
</defs>
</svg>
