<svg width="32" height="32" viewBox="0 0 32 32" fill="none" xmlns="http://www.w3.org/2000/svg">
<path d="M2 15.3351V14.2145L8.02792 10.9872L8.64801 12.2721L3.70166 14.7673L8.64801 17.2775L8.02792 18.5624L2 15.3351Z" fill="#141414"/>
<path d="M9.42595 21.9989L13.2763 9H14.7472L10.8969 21.9989H9.42595Z" fill="#141414"/>
<path d="M18.4061 16.2615C18.7426 16.2615 18.9925 16.1071 19.156 15.7983C19.329 15.4895 19.4155 15.0711 19.4155 14.5432C19.4155 14.0153 19.329 13.6069 19.156 13.318C18.9925 13.0192 18.7522 12.8698 18.4349 12.8698C18.1081 12.8698 17.8629 13.0192 17.6995 13.318C17.536 13.6169 17.4543 14.0302 17.4543 14.5582C17.4543 15.0861 17.5312 15.5044 17.685 15.8132C17.8389 16.1121 18.0792 16.2615 18.4061 16.2615ZM16.4881 20.8485C16.4881 21.2867 16.6467 21.6055 16.964 21.8047C17.2813 22.0139 17.7668 22.1185 18.4205 22.1185C19.1415 22.1185 19.6847 22.0089 20.0501 21.7898C20.4154 21.5706 20.5981 21.2967 20.5981 20.968C20.5981 20.7488 20.5211 20.5496 20.3673 20.3703C20.2135 20.201 19.9395 20.1163 19.5453 20.1163H18.0311C17.5024 20.1163 17.0649 20.0715 16.7188 19.9819C16.6419 20.1213 16.5843 20.2558 16.5458 20.3853C16.5073 20.5148 16.4881 20.6692 16.4881 20.8485ZM18.4205 16.9637C17.9206 16.9637 17.4832 16.9039 17.1082 16.7844C16.9928 16.9936 16.9352 17.2227 16.9352 17.4717C16.9352 17.6411 16.9976 17.7805 17.1226 17.8901C17.2476 17.9897 17.4639 18.0395 17.7716 18.0395H19.4588C20.1895 18.0395 20.7711 18.1341 21.2037 18.3234C21.6364 18.5027 21.944 18.7567 22.1267 19.0854C22.3189 19.4041 22.4151 19.7826 22.4151 20.2209C22.4151 20.719 22.2565 21.1772 21.9392 21.5955C21.6219 22.0238 21.146 22.3625 20.5115 22.6115C19.8866 22.8705 19.1127 23 18.1898 23C17.3918 23 16.7669 22.9153 16.3151 22.746C15.8632 22.5866 15.546 22.3725 15.3633 22.1035C15.1806 21.8346 15.0893 21.5507 15.0893 21.2519C15.0893 20.6144 15.4883 20.1014 16.2862 19.7129C15.9882 19.5834 15.7719 19.4141 15.6373 19.2049C15.5123 18.9957 15.4498 18.7666 15.4498 18.5176C15.4498 18.169 15.546 17.8403 15.7382 17.5315C15.9401 17.2127 16.2189 16.894 16.5746 16.5752C16.1805 16.3661 15.8872 16.0872 15.695 15.7385C15.5027 15.3899 15.4065 15.0014 15.4065 14.5731C15.4065 13.8758 15.6517 13.2981 16.142 12.8399C16.6419 12.3817 17.4014 12.1526 18.4205 12.1526C18.9397 12.1526 19.3915 12.2124 19.7761 12.3319C20.1606 12.4514 20.4731 12.6208 20.7134 12.8399L22.3286 12.1227L22.5593 12.2721V13.4226H21.1893C21.3624 13.7513 21.4489 14.1348 21.4489 14.5731C21.4489 15.2405 21.1989 15.8083 20.699 16.2764C20.2087 16.7346 19.4492 16.9637 18.4205 16.9637Z" fill="url(#paint0_linear_32_1389)"/>
<path d="M30 14.2145V15.3351L23.9721 18.5624L23.352 17.2775L28.2983 14.7673L23.352 12.2721L23.9721 10.9872L30 14.2145Z" fill="#141414"/>
<defs>
<linearGradient id="paint0_linear_32_1389" x1="16" y1="9" x2="16" y2="23" gradientUnits="userSpaceOnUse">
<stop stop-color="#FFB154" stop-opacity="0.94"/>
<stop offset="1" stop-color="#E37B00"/>
</linearGradient>
</defs>
</svg>
