<svg width="15" height="15" viewBox="0 0 15 15" fill="none" xmlns="http://www.w3.org/2000/svg">
<path d="M13.9482 7.87316C15.3506 6.07116 15.3506 3.15287 13.9482 1.35087C12.7072 -0.243823 10.7514 -0.451133 9.32427 0.859704L9.28456 0.894787C8.92715 1.22329 8.84525 1.86117 9.10089 2.31725C9.35654 2.77333 9.85294 2.88177 10.2079 2.55327L10.2476 2.51818C11.0443 1.78781 12.1339 1.90263 12.8239 2.79247C13.6057 3.79713 13.6057 5.42371 12.8239 6.42837L10.0391 10.0132C9.25726 11.0179 7.99144 11.0179 7.20961 10.0132C6.51713 9.12339 6.42777 7.72326 6.99615 6.70265L7.02345 6.65162C7.2791 6.19235 7.19471 5.55448 6.83979 5.22916C6.48486 4.90384 5.98598 5.00909 5.73281 5.46517L5.70551 5.5162C4.68292 7.34691 4.84425 9.86014 6.08526 11.4548C7.48759 13.2568 9.75863 13.2568 11.161 11.4548L13.9482 7.87316ZM1.05175 7.12684C-0.350583 8.92884 -0.350583 11.8471 1.05175 13.6491C2.29275 15.2438 4.24857 15.4511 5.67573 14.1403L5.71544 14.1052C6.07285 13.7767 6.15475 13.1388 5.89911 12.6827C5.64346 12.2267 5.14706 12.1182 4.79213 12.4467L4.75242 12.4818C3.9557 13.2122 2.8661 13.0974 2.1761 12.2075C1.39427 11.1997 1.39427 9.5731 2.1761 8.56844L4.96091 4.98677C5.74274 3.98211 7.00856 3.98211 7.79039 4.98677C8.48287 5.8766 8.57223 7.27674 8.00385 8.30054L7.97655 8.35157C7.7209 8.81084 7.80529 9.44871 8.16021 9.77403C8.51514 10.0993 9.01402 9.9941 9.26719 9.53802L9.29449 9.48699C10.3171 7.65309 10.1557 5.13986 8.91474 3.54516C7.51241 1.74316 5.24138 1.74316 3.83904 3.54516L1.05175 7.12684Z" fill="#141414"/>
</svg>
