<svg width="25" height="20" viewBox="0 0 25 20" fill="none" xmlns="http://www.w3.org/2000/svg">
<path d="M2.66214 19.5237C2.19917 19.5237 1.79408 19.3451 1.44686 18.988C1.09964 18.6308 0.926025 18.2142 0.926025 17.738V2.26179C0.926025 1.7856 1.09964 1.36893 1.44686 1.01179C1.79408 0.654645 2.19917 0.476074 2.66214 0.476074H22.3381C22.801 0.476074 23.2061 0.654645 23.5533 1.01179C23.9006 1.36893 24.0742 1.7856 24.0742 2.26179V17.738C24.0742 18.2142 23.9006 18.6308 23.5533 18.988C23.2061 19.3451 22.801 19.5237 22.3381 19.5237H2.66214ZM22.3381 3.89869L12.9631 10.2082C12.8859 10.2479 12.8136 10.2826 12.746 10.3124C12.6785 10.3421 12.5966 10.357 12.5001 10.357C12.4036 10.357 12.3217 10.3421 12.2542 10.3124C12.1866 10.2826 12.1143 10.2479 12.0371 10.2082L2.66214 3.89869V17.738H22.3381V3.89869ZM12.5001 8.74988L22.2223 2.26179H2.80681L12.5001 8.74988ZM2.66214 3.89869V4.10703V2.93143V2.94631V2.26179V2.94631V2.91655V4.10703V3.89869V17.738V3.89869Z" fill="white"/>
</svg>
