<svg width="81" height="80" viewBox="0 0 81 80" fill="none" xmlns="http://www.w3.org/2000/svg">
<path d="M0.916504 14.9676C0.916504 6.7012 10.5555 0 22.4458 0H59.3872C71.2775 0 80.9165 6.7012 80.9165 14.9676C80.9165 20.2019 77.0517 24.8088 71.1977 27.4839C77.0517 30.1592 80.9165 34.7659 80.9165 40.0003C80.9165 48.2667 71.2775 54.968 59.3872 54.968H58.9197C53.3455 54.968 48.266 53.4952 44.4426 51.0787V64.8698C44.4426 73.2464 34.5516 80 22.5618 80C10.7012 80 0.916504 73.3192 0.916504 65.0323C0.916504 59.7983 4.78094 55.1917 10.6344 52.5164C4.78094 49.8411 0.916504 45.2344 0.916504 40.0003C0.916504 34.7659 4.78127 30.1592 10.6352 27.4839C4.78127 24.8088 0.916504 20.2019 0.916504 14.9676ZM37.3904 29.9355H22.4458C14.4502 29.9355 7.96861 34.4417 7.96861 40.0003C7.96861 45.5375 14.4002 50.0303 22.3532 50.065C22.384 50.0648 22.4148 50.0648 22.4458 50.0648H37.3904V29.9355ZM44.4426 40.0003C44.4426 45.5589 50.9241 50.0652 58.9197 50.0652H59.3872C67.3828 50.0652 73.8644 45.5589 73.8644 40.0003C73.8644 34.4417 67.3828 29.9355 59.3872 29.9355H58.9197C50.9241 29.9355 44.4426 34.4417 44.4426 40.0003ZM22.4458 54.968C22.4148 54.968 22.384 54.9678 22.3532 54.9678C14.4002 55.0023 7.96861 59.4952 7.96861 65.0323C7.96861 70.5706 14.5368 75.0972 22.5618 75.0972C30.7161 75.0972 37.3904 70.4978 37.3904 64.8698V54.968H22.4458ZM22.4458 4.90278C14.4502 4.90278 7.96861 9.40895 7.96861 14.9676C7.96861 20.5262 14.4502 25.0323 22.4458 25.0323H37.3904V4.90278H22.4458ZM44.4426 25.0323H59.3872C67.3828 25.0323 73.8644 20.5262 73.8644 14.9676C73.8644 9.40895 67.3828 4.90278 59.3872 4.90278H44.4426V25.0323Z" fill="black"/>
</svg>
