<svg width="80" height="80" viewBox="0 0 80 80" fill="none" xmlns="http://www.w3.org/2000/svg">
<path d="M26.7581 64.4159C26.7581 64.7467 26.3871 65.0114 25.9194 65.0114C25.3871 65.061 25.0161 64.7964 25.0161 64.4159C25.0161 64.085 25.3871 63.8204 25.8548 63.8204C26.3387 63.7707 26.7581 64.0354 26.7581 64.4159ZM21.7419 63.6715C21.629 64.0023 21.9516 64.3828 22.4355 64.482C22.8548 64.6475 23.3387 64.482 23.4355 64.1512C23.5323 63.8204 23.2258 63.4399 22.7419 63.291C22.3226 63.1752 21.8548 63.3406 21.7419 63.6715ZM28.871 63.3903C28.4032 63.5061 28.0806 63.8204 28.129 64.2008C28.1774 64.5317 28.5968 64.7467 29.0806 64.6309C29.5484 64.5151 29.871 64.2008 29.8226 63.87C29.7742 63.5557 29.3387 63.3406 28.871 63.3903ZM39.4839 0C17.1129 0 0 17.4191 0 40.3633C0 58.7088 11.2581 74.4075 27.3387 79.9326C29.4032 80.3131 30.129 79.0062 30.129 77.931C30.129 76.9054 30.0806 71.2479 30.0806 67.774C30.0806 67.774 18.7903 70.2553 16.4194 62.8444C16.4194 62.8444 14.5806 58.0305 11.9355 56.7899C11.9355 56.7899 8.24194 54.1927 12.1935 54.2423C12.1935 54.2423 16.2097 54.5732 18.4194 58.5103C21.9516 64.8956 27.871 63.0594 30.1774 61.9676C30.5484 59.3208 31.5968 57.4846 32.7581 56.3928C23.7419 55.3672 14.6452 54.0273 14.6452 38.1136C14.6452 33.5644 15.871 31.2816 18.4516 28.3701C18.0323 27.2949 16.6613 22.8615 18.871 17.1379C22.2419 16.0626 30 21.6043 30 21.6043C33.2258 20.6779 36.6935 20.1982 40.129 20.1982C43.5645 20.1982 47.0323 20.6779 50.2581 21.6043C50.2581 21.6043 58.0161 16.0461 61.3871 17.1379C63.5968 22.8781 62.2258 27.2949 61.8064 28.3701C64.3871 31.2981 65.9677 33.581 65.9677 38.1136C65.9677 54.0769 56.4677 55.3507 47.4516 56.3928C48.9355 57.6997 50.1936 60.181 50.1936 64.0685C50.1936 69.6433 50.1452 76.5414 50.1452 77.8979C50.1452 78.9731 50.8871 80.28 52.9355 79.8995C69.0645 74.4075 80 58.7088 80 40.3633C80 17.4191 61.8548 0 39.4839 0ZM15.6774 57.0545C15.4677 57.22 15.5161 57.6004 15.7903 57.9147C16.0484 58.1794 16.4194 58.2952 16.629 58.0802C16.8387 57.9147 16.7903 57.5343 16.5161 57.22C16.2581 56.9553 15.8871 56.8395 15.6774 57.0545ZM13.9355 55.7146C13.8226 55.9297 13.9839 56.1943 14.3065 56.3598C14.5645 56.5252 14.8871 56.4756 15 56.244C15.1129 56.0289 14.9516 55.7642 14.629 55.5988C14.3065 55.4996 14.0484 55.5492 13.9355 55.7146ZM19.1613 61.6037C18.9032 61.8187 19 62.315 19.371 62.6293C19.7419 63.0098 20.2097 63.0594 20.4194 62.7947C20.629 62.5797 20.5323 62.0834 20.2097 61.7691C19.8548 61.3886 19.371 61.339 19.1613 61.6037ZM17.3226 59.172C17.0645 59.3374 17.0645 59.7675 17.3226 60.148C17.5806 60.5284 18.0161 60.6939 18.2258 60.5284C18.4839 60.3134 18.4839 59.8833 18.2258 59.5028C18 59.1223 17.5806 58.9569 17.3226 59.172Z" fill="black"/>
</svg>
