<svg width="20" height="20" viewBox="0 0 20 20" fill="none" xmlns="http://www.w3.org/2000/svg">
<path d="M11.0624 18.3334C10.743 18.3334 10.5103 18.2292 10.3645 18.0209C10.2187 17.8125 10.2013 17.5556 10.3124 17.25L13.3749 9.12502C13.4583 8.9028 13.611 8.7153 13.8333 8.56252C14.0555 8.40974 14.2846 8.33335 14.5208 8.33335C14.7569 8.33335 14.9895 8.40974 15.2187 8.56252C15.4478 8.7153 15.6041 8.9028 15.6874 9.12502L18.8124 17.1667C18.9374 17.4861 18.9235 17.7604 18.7708 17.9896C18.618 18.2188 18.361 18.3334 17.9999 18.3334C17.8471 18.3334 17.7013 18.2847 17.5624 18.1875C17.4235 18.0903 17.3263 17.9653 17.2708 17.8125L16.5833 15.7084H12.5833L11.7916 17.8334C11.736 17.9722 11.6388 18.0903 11.4999 18.1875C11.361 18.2847 11.2152 18.3334 11.0624 18.3334V18.3334ZM13.0416 14.25H15.9999L14.5416 10.2084H14.4999L13.0416 14.25ZM6.02075 7.12502C6.22909 7.48613 6.45825 7.83683 6.70825 8.1771C6.95825 8.51738 7.22909 8.86808 7.52075 9.22919C8.14575 8.57641 8.66659 7.89933 9.08325 7.19794C9.49992 6.49655 9.85409 5.76391 10.1458 5.00002H1.66659C1.43047 5.00002 1.23256 4.92016 1.07284 4.76044C0.913113 4.60071 0.833252 4.4028 0.833252 4.16669C0.833252 3.93058 0.913113 3.73266 1.07284 3.57294C1.23256 3.41321 1.43047 3.33335 1.66659 3.33335H6.66659V2.50002C6.66659 2.26391 6.74645 2.06599 6.90617 1.90627C7.06589 1.74655 7.26381 1.66669 7.49992 1.66669C7.73603 1.66669 7.93395 1.74655 8.09367 1.90627C8.25339 2.06599 8.33325 2.26391 8.33325 2.50002V3.33335H13.3333C13.5694 3.33335 13.7673 3.41321 13.927 3.57294C14.0867 3.73266 14.1666 3.93058 14.1666 4.16669C14.1666 4.4028 14.0867 4.60071 13.927 4.76044C13.7673 4.92016 13.5694 5.00002 13.3333 5.00002H11.8124C11.5069 5.95835 11.1006 6.89933 10.5937 7.82294C10.0867 8.74655 9.4652 9.62502 8.72909 10.4584L10.7708 12.5209L10.1458 14.2084L7.49992 11.6667L3.89575 15.2709C3.74297 15.4236 3.55547 15.5 3.33325 15.5C3.11103 15.5 2.92353 15.4167 2.77075 15.25C2.60409 15.0972 2.52075 14.9097 2.52075 14.6875C2.52075 14.4653 2.60409 14.2709 2.77075 14.1042L6.43742 10.4375C6.07631 10.007 5.73603 9.57294 5.41659 9.13544C5.09714 8.69794 4.80547 8.25002 4.54159 7.79169C4.37492 7.48613 4.36103 7.22224 4.49992 7.00002C4.63881 6.7778 4.88881 6.66669 5.24992 6.66669C5.4027 6.66669 5.552 6.71183 5.69784 6.8021C5.84367 6.89238 5.95131 7.00002 6.02075 7.12502V7.12502Z" fill="url(#paint0_linear_28_574)"/>
<defs>
<linearGradient id="paint0_linear_28_574" x1="9.86502" y1="1.66669" x2="9.86502" y2="18.3334" gradientUnits="userSpaceOnUse">
<stop stop-color="#FFB154" stop-opacity="0.94"/>
<stop offset="1" stop-color="#E37B00"/>
</linearGradient>
</defs>
</svg>
