<svg width="80" height="80" viewBox="0 0 80 80" fill="none" xmlns="http://www.w3.org/2000/svg">
<path d="M71.4286 0H8.57143C3.83929 0 0 3.83929 0 8.57143V71.4286C0 76.1607 3.83929 80 8.57143 80H71.4286C76.1607 80 80 76.1607 80 71.4286V8.57143C80 3.83929 76.1607 0 71.4286 0ZM43.5357 62.3929C43.5357 70.1786 38.9643 73.7321 32.3036 73.7321C26.2857 73.7321 22.8036 70.625 21.0179 66.8571L27.1429 63.1607C28.3214 65.25 29.3929 67.0179 31.9821 67.0179C34.4464 67.0179 36.0179 66.0536 36.0179 62.2857V36.7321H43.5357V62.3929ZM61.3214 73.7321C54.3393 73.7321 49.8214 70.4107 47.625 66.0536L53.75 62.5179C55.3571 65.1429 57.4643 67.0893 61.1607 67.0893C64.2679 67.0893 66.2679 65.5357 66.2679 63.375C66.2679 60.8036 64.2321 59.8929 60.7857 58.375L58.9107 57.5714C53.4821 55.2679 49.8929 52.3571 49.8929 46.2321C49.8929 40.5893 54.1964 36.3036 60.8929 36.3036C65.6786 36.3036 69.1071 37.9643 71.5714 42.3214L65.7143 46.0714C64.4286 43.7679 63.0357 42.8571 60.875 42.8571C58.6786 42.8571 57.2857 44.25 57.2857 46.0714C57.2857 48.3214 58.6786 49.2321 61.9107 50.6429L63.7857 51.4464C70.1786 54.1786 73.7679 56.9821 73.7679 63.2679C73.7679 70.0179 68.4464 73.7321 61.3214 73.7321Z" fill="#FFDF00"/>
</svg>
