<svg width="80" height="80" viewBox="0 0 80 80" fill="none" xmlns="http://www.w3.org/2000/svg">
<path d="M37.73 60.481C37.655 60.661 37.6925 60.581 37.73 60.481ZM68.8716 45.9822C66.3575 45.9811 63.8769 46.7509 61.6215 48.232C60.884 46.2489 60.1215 44.5157 59.9965 43.2158C59.8465 41.6992 59.684 40.7993 59.859 38.9995C60.034 37.1996 60.8215 34.6498 60.809 34.4665C60.7965 34.2832 60.634 33.3666 59.0215 33.3499C57.409 33.3332 56.0215 33.7665 55.8602 34.3332C55.5754 35.3687 55.3538 36.4331 55.1977 37.5162C54.9102 39.4661 51.9739 46.4322 50.3114 50.0652C49.7614 48.6487 49.2989 47.3988 49.1989 46.3988C49.0489 44.8823 48.8864 43.9824 49.0614 42.1825C49.2364 40.3827 50.0239 37.8329 50.0114 37.6496C49.9989 37.4662 49.8364 36.5496 48.2251 36.533C46.6138 36.5163 45.2251 36.9496 45.0626 37.5162C44.9001 38.0829 44.7251 39.4161 44.4001 40.6993C44.0751 41.9825 40.1638 53.5816 39.14 56.598C38.615 58.1312 38.165 59.3645 37.84 60.1977C37.79 60.331 37.7525 60.4144 37.7275 60.481C37.765 60.3977 37.79 60.3144 37.79 60.3477C37.515 61.0643 37.3525 61.4643 37.3525 61.4643V61.4809C37.14 62.0142 36.9025 62.4975 36.79 62.4975C36.715 62.4975 36.5525 61.0976 36.8275 59.1811C37.415 55.1481 38.8025 48.882 38.79 48.6653C38.7775 48.5487 39.0525 47.4654 37.8775 46.8821C36.74 46.3322 36.3275 47.2488 36.2275 47.2488C36.1275 47.2488 36.0525 47.5821 36.0525 47.5821C36.0525 47.5821 37.315 40.516 33.6287 40.516C31.3287 40.516 28.1286 43.8824 26.5561 46.9321C25.5686 47.6487 23.4311 49.1986 21.181 50.8485C20.3185 51.4818 19.431 52.1317 18.5935 52.7483C18.531 52.665 18.481 52.5817 18.4185 52.4983C13.9447 46.1322 5.68462 41.6326 6.03462 33.0833C6.15963 29.9669 6.97213 21.7842 21.9186 11.8517C34.1687 3.71899 43.9626 5.95214 45.6488 10.9184C48.0739 18.0012 40.4125 31.1834 27.6911 33.0833C22.8423 33.7999 20.2935 31.3001 19.656 30.3668C18.9935 29.3836 18.8935 29.3336 18.6435 29.5169C18.231 29.8169 18.4935 30.6835 18.6435 31.2001C19.0185 32.5166 20.581 34.8498 23.2423 36.0164C25.5798 37.0329 31.2649 37.5996 38.1387 34.0499C45.8613 30.0835 51.8727 19.0344 50.1101 9.78516C48.3151 0.385928 36.625 -2.69715 25.5711 2.53575C18.9848 5.65217 11.8622 10.5518 6.73838 16.9346C0.652062 24.534 -0.321699 31.1501 0.0783055 33.9165C1.50207 43.7324 11.6497 50.1319 15.711 54.8648C15.511 55.0148 15.3235 55.1481 15.1485 55.2815C13.1122 56.6313 5.37587 62.0309 3.43959 67.7304C1.25207 74.1966 3.8021 78.8295 5.47587 79.4628C10.6997 81.396 16.0485 77.9129 18.9223 72.1967C21.7961 66.4805 21.4473 59.0145 20.1223 55.6148C20.1098 55.5648 20.0848 55.5314 20.0723 55.4814C20.5973 55.0648 21.1348 54.6482 21.6723 54.2315C22.7086 53.4149 23.7211 52.665 24.6086 52.0151C24.1086 53.8149 23.7461 55.9814 23.5586 59.1145C23.3336 62.7808 24.4711 67.5305 25.9461 69.397C26.5961 70.2136 27.3824 70.2302 27.8699 70.2302C29.5949 70.2302 30.3699 68.3304 31.2312 66.0639C32.2937 63.2975 33.2312 60.0811 33.2312 60.0811C33.2312 60.0811 32.0562 68.7804 35.2687 68.7804C36.4425 68.7804 37.6175 66.7639 38.1437 65.7306V65.7473C38.1437 65.7473 38.1687 65.6806 38.2312 65.5473C38.3562 65.2973 38.4187 65.1473 38.4187 65.1473V65.0973C38.8938 64.0141 39.9313 61.5309 41.4925 57.4313C43.5176 52.1317 45.4538 45.5156 45.4538 45.5156C45.6409 46.97 45.8998 48.4063 46.2288 49.8152C46.5788 51.3984 47.3164 53.1316 47.9039 54.8148C47.4289 55.6814 47.1413 56.1814 47.1413 56.1814C47.1423 56.1942 47.1467 56.2061 47.1538 56.2147C46.7788 56.8813 46.3538 57.5979 45.9163 58.2979C44.3176 60.831 42.4163 63.7308 42.1663 64.564C41.8663 65.5473 41.9413 66.2806 42.5163 66.8472C42.9413 67.2805 43.6913 67.3471 44.4776 67.2638C45.9151 67.1305 46.9276 66.6639 47.4151 66.3639C48.3138 65.9342 49.1633 65.3397 49.9389 64.5974C51.5014 63.0642 52.4514 60.8643 52.3639 57.9646C52.3139 56.3647 51.9264 54.7648 51.4514 53.265C51.5889 52.9983 51.7389 52.715 51.8764 52.4317C54.3502 47.6154 56.2627 42.3292 56.2627 42.3292C56.4498 43.7836 56.7087 45.2199 57.0377 46.6288C57.3377 47.9787 57.924 49.4619 58.4615 50.9118C56.1377 53.4283 54.7002 56.3447 54.2002 58.2612C53.2752 61.8109 54.0002 63.4108 55.3627 63.7774C55.9752 63.9441 56.8502 63.5608 57.5002 63.1941C58.4656 62.7655 59.3758 62.1416 60.199 61.3443C61.7615 59.8111 63.2728 57.6613 63.1728 54.7448C63.1353 53.4283 62.8603 52.1117 62.4978 50.8451C64.4603 49.7452 67.0091 49.1453 70.2591 49.6452C77.2192 50.7285 78.5817 56.528 78.3192 58.9445C78.0567 61.361 76.5942 62.7109 76.1067 63.1108C75.6192 63.5108 75.4692 63.6608 75.5067 63.9607C75.5692 64.394 75.7942 64.3774 76.2067 64.2774C76.7817 64.1441 79.8555 62.3109 79.993 57.8279C80.193 52.1617 76.1067 45.9289 68.8679 45.9789L68.8716 45.9822ZM15.2235 70.0969C12.9247 73.4466 9.69967 74.7132 8.3134 73.6466C6.82588 72.4934 7.41339 67.5638 10.2497 63.9941C11.9747 61.8276 14.1985 59.8277 15.6735 58.5945C16.011 58.3279 16.4985 57.9279 17.0985 57.4446C17.1985 57.3613 17.2485 57.328 17.2485 57.328C17.361 57.228 17.486 57.1446 17.611 57.0446C18.6473 62.1109 17.6485 66.5772 15.2235 70.0936V70.0969ZM32.0187 54.8648C31.2187 57.4813 29.5324 64.1474 28.5074 63.7974C27.6324 63.4975 27.0949 58.4145 28.3324 53.4149C28.9574 50.8985 30.2824 47.8987 31.0699 46.7322C32.3312 44.849 33.7187 44.249 34.0437 44.999C34.4812 45.9822 32.5187 53.2316 32.0187 54.8648ZM45.8938 63.6974C45.5563 63.9307 45.2438 64.0807 45.0938 63.9641C44.9813 63.8808 45.2313 63.5641 45.2313 63.5641C45.2313 63.5641 46.9688 61.081 47.6564 59.9477C48.0564 59.2811 48.5189 58.4979 49.0176 57.6313C49.0176 57.7146 49.0301 57.7979 49.0301 57.8979C49.0139 60.881 46.8651 62.8975 45.8901 63.6974H45.8938ZM56.5915 60.4477C56.3415 60.2144 56.379 59.4311 57.2165 56.998C57.5415 56.0481 58.2902 54.4482 59.5915 52.915C59.7388 53.4954 59.8189 54.1023 59.829 54.7148C59.8165 58.4645 57.804 59.8644 56.5927 60.4477H56.5915Z" fill="#CE679A"/>
</svg>
